<?xml version="1.0" encoding="iso-8859-1"?>
<!-- Uploaded to: SVG Repo, www.svgrepo.com, Generator: SVG Repo Mixer Tools -->
<!DOCTYPE svg PUBLIC "-//W3C//DTD SVG 1.1//EN" "http://www.w3.org/Graphics/SVG/1.1/DTD/svg11.dtd">
<svg fill="#000000" version="1.1" id="Capa_1" xmlns="http://www.w3.org/2000/svg" xmlns:xlink="http://www.w3.org/1999/xlink" 
	 width="800px" height="800px" viewBox="0 0 845.4 845.4" xml:space="preserve"
	>
<g>
	<g>
		<path d="M795.4,222.9H675L658,124c-4.1-24-24.899-41.5-49.3-41.5h-367c-24.1,0-44.8,17.2-49.2,40.9L174,223H50
			c-27.6,0-50,22.4-50,50v439.9c0,27.6,22.4,50,50,50h745.4c27.6,0,50-22.4,50-50v-440C845.4,245.3,823,222.9,795.4,222.9z
			 M422.7,672.5c-99.2,0-179.6-80.4-179.6-179.6c0-99.2,80.399-179.601,179.6-179.601S602.3,393.7,602.3,492.9
			C602.3,592.1,521.9,672.5,422.7,672.5z"/>
		<circle cx="422.7" cy="492.9" r="104.7"/>
	</g>
</g>
</svg>