<?xml version="1.0" encoding="iso-8859-1"?>
<!-- Uploaded to: SVG Repo, www.svgrepo.com, Generator: SVG Repo Mixer Tools -->
<svg fill="#000000" height="800px" width="800px" version="1.1" id="Layer_1" xmlns="http://www.w3.org/2000/svg" xmlns:xlink="http://www.w3.org/1999/xlink" 
	 viewBox="0 0 512 512" xml:space="preserve">
<g>
	<g>
		<path d="M495.304,367.304h-83.478c-31.74,0-59.096,11.204-65.447,42.301l-2.727,13.351H168.348l-2.728-13.359
			c-6.35-31.093-33.703-42.293-65.438-42.293H16.696C7.475,367.304,0,374.78,0,384v16.696C0,456.021,44.849,512,100.174,512h311.652
			C467.151,512,512,456.021,512,400.696V384C512,374.78,504.525,367.304,495.304,367.304z"/>
	</g>
</g>
<g>
	<g>
		<path d="M256,0C114.837,0,0,114.837,0,256c0,27.326,4.349,53.645,12.313,78.356c1.468-0.13,2.883-0.443,4.383-0.443h31.043
			C38.618,309.621,33.391,283.44,33.391,256C33.391,133.25,133.25,33.391,256,33.391S478.609,133.25,478.609,256
			c0,27.44-5.227,53.621-14.347,77.913h31.043c1.5,0,2.915,0.313,4.383,0.443C507.651,309.645,512,283.326,512,256
			C512,114.837,397.163,0,256,0z"/>
	</g>
</g>
<g>
	<g>
		<path d="M256,66.783C151.663,66.783,66.783,151.663,66.783,256c0,27.792,6.174,54.118,16.983,77.913h16.42
			c46.967,0,81.239,20.532,94.348,55.652h122.946c13.108-35.12,47.38-55.652,94.348-55.652h16.409
			c10.808-23.795,16.982-50.121,16.982-77.913C445.217,151.663,360.337,66.783,256,66.783z M187.945,273.489
			c-4.272,0-8.544-1.631-11.804-4.892c-6.521-6.521-6.521-17.087,0-23.609l94.446-94.446c6.521-6.521,17.087-6.521,23.609,0
			c6.521,6.521,6.521,17.087,0,23.609l-94.446,94.446C196.489,271.859,192.217,273.489,187.945,273.489z M341.424,221.38
			l-94.446,94.435c-3.261,3.261-7.533,4.892-11.804,4.892s-8.544-1.631-11.804-4.892c-6.521-6.521-6.521-17.087,0-23.609
			l94.446-94.435c6.521-6.521,17.087-6.521,23.609,0C347.946,204.292,347.945,214.859,341.424,221.38z"/>
	</g>
</g>
</svg>